<svg width="22" height="62" fill="none" xmlns="http://www.w3.org/2000/svg"><path fill-rule="evenodd" clip-rule="evenodd" d="M0 3.18v55.64A3.18 3.18 0 0 0 3.18 62h15.64A3.18 3.18 0 0 0 22 58.82V3.18A3.18 3.18 0 0 0 18.82 0H3.18A3.18 3.18 0 0 0 0 3.18Zm2 0C2 2.528 2.528 2 3.18 2H5v3H2V3.18ZM2 7h3v3H2V7Zm16.82 33A1.18 1.18 0 0 0 20 38.82V37h-3v3h1.82ZM15 40v-8H7v8h8ZM5 40v-3H2v1.82c0 .652.528 1.18 1.18 1.18H5Zm-1.82 2A1.18 1.18 0 0 0 2 43.18V45h3v-3H3.18ZM7 42v8h8v-8H7Zm10 0v3h3v-1.82A1.18 1.18 0 0 0 18.82 42H17ZM5 20H3.18A1.18 1.18 0 0 1 2 18.82V17h3v3Zm10 0H7v-8h8v8Zm3.82 0H17v-3h3v1.82A1.18 1.18 0 0 1 18.82 20ZM17 22h1.82c.652 0 1.18.528 1.18 1.18V25h-3v-3ZM7 22h8v8H7v-8Zm-3.82 0H5v3H2v-1.82c0-.652.528-1.18 1.18-1.18ZM20 5V3.18A1.18 1.18 0 0 0 18.82 2H17v3h3Zm-3 2h3v3h-3V7Zm-2-5H7v8h8V2Zm5 10v3h-3v-3h3ZM5 15H2v-3h3v3ZM2 27h3v3H2v-3Zm15 0h3v3h-3v-3Zm3 5v3h-3v-3h3ZM5 35H2v-3h3v3Zm0 12H2v3h3v-3Zm15 0h-3v3h3v-3Zm0 8v-3h-3v3h3Zm-3 2h3v1.82A1.18 1.18 0 0 1 18.82 60H17v-3Zm-2-5H7v8h8v-8ZM2 58.82V57h3v3H3.18A1.18 1.18 0 0 1 2 58.82ZM2 55h3v-3H2v3Z" fill="#fff"/></svg>