<svg aria-hidden="true" style="width:0;height:0;position:absolute;overflow:hidden" xmlns="http://www.w3.org/2000/svg"><defs><symbol id="icon-youtube" viewBox="0 0 32 32"><path d="M31.681 9.6s-.313-2.206-1.275-3.175C29.187 5.15 27.825 5.144 27.2 5.069c-4.475-.325-11.194-.325-11.194-.325h-.012s-6.719 0-11.194.325c-.625.075-1.987.081-3.206 1.356C.631 7.394.325 9.6.325 9.6s-.319 2.588-.319 5.181v2.425c0 2.587.319 5.181.319 5.181s.313 2.206 1.269 3.175c1.219 1.275 2.819 1.231 3.531 1.369 2.563.244 10.881.319 10.881.319s6.725-.012 11.2-.331c.625-.075 1.988-.081 3.206-1.356.962-.969 1.275-3.175 1.275-3.175s.319-2.587.319-5.181v-2.425c-.006-2.588-.325-5.181-.325-5.181zM12.694 20.15v-8.994l8.644 4.513-8.644 4.481z"/></symbol><symbol id="icon-film" viewBox="0 0 24 24"><path d="M19.82 2H4.18A2.18 2.18 0 0 0 2 4.18v15.64A2.18 2.18 0 0 0 4.18 22h15.64A2.18 2.18 0 0 0 22 19.82V4.18A2.18 2.18 0 0 0 19.82 2ZM7 2v20M17 2v20M2 12h20M2 7h5M2 17h5m10 0h5M17 7h5" stroke="#fff" stroke-width="2" stroke-linecap="round" stroke-linejoin="round"/></symbol><symbol id="icon-search" viewBox="0 0 24 24"><path d="M16.041 15.856a.995.995 0 0 0-.186.186A6.97 6.97 0 0 1 11 18c-1.933 0-3.682-.782-4.95-2.05S4 12.933 4 11s.782-3.682 2.05-4.95S9.067 4 11 4s3.682.782 4.95 2.05S18 9.067 18 11a6.971 6.971 0 0 1-1.959 4.856zm5.666 4.437-3.675-3.675A8.967 8.967 0 0 0 20 11c0-2.485-1.008-4.736-2.636-6.364S13.485 2 11 2 6.264 3.008 4.636 4.636 2 8.515 2 11s1.008 4.736 2.636 6.364S8.515 20 11 20a8.967 8.967 0 0 0 5.618-1.968l3.675 3.675a.999.999 0 1 0 1.414-1.414z"/></symbol><symbol id="icon-close" viewBox="0 0 24 24"><path d="M5.293 6.707 10.586 12l-5.293 5.293a.999.999 0 1 0 1.414 1.414L12 13.414l5.293 5.293a.999.999 0 1 0 1.414-1.414L13.414 12l5.293-5.293a.999.999 0 1 0-1.414-1.414L12 10.586 6.707 5.293a.999.999 0 1 0-1.414 1.414z"/></symbol><symbol id="icon-youtube" viewBox="0 0 32 32"><path d="M31.681 9.6s-.313-2.206-1.275-3.175C29.187 5.15 27.825 5.144 27.2 5.069c-4.475-.325-11.194-.325-11.194-.325h-.012s-6.719 0-11.194.325c-.625.075-1.987.081-3.206 1.356C.631 7.394.325 9.6.325 9.6s-.319 2.588-.319 5.181v2.425c0 2.587.319 5.181.319 5.181s.313 2.206 1.269 3.175c1.219 1.275 2.819 1.231 3.531 1.369 2.563.244 10.881.319 10.881.319s6.725-.012 11.2-.331c.625-.075 1.988-.081 3.206-1.356.962-.969 1.275-3.175 1.275-3.175s.319-2.587.319-5.181v-2.425c-.006-2.588-.325-5.181-.325-5.181zM12.694 20.15v-8.994l8.644 4.513-8.644 4.481z"/></symbol><symbol id="icon-youtube2" viewBox="0 0 80 32"><path d="M10.75 5.294a.449.449 0 0 0 .012-.056l.033-.236-1.48-.008c-1.337-.008-1.746 0-1.783.034-.018.016-.479 1.77-1.302 4.946-.392 1.515-.723 2.725-.734 2.689s-.481-1.766-1.044-3.843c-.563-2.078-1.034-3.789-1.048-3.803-.019-.019-1.812-.028-3.263-.016-.21.002-.327-.41 1.876 6.598.305.97.762 2.344 1.015 3.052.292.817.5 1.448.642 1.974.251 1.002.26 1.63.205 2.363-.063.847-.073 6.826-.011 6.926.047.077 2.851.112 3.116.04.042-.012.071-.053.09-.279.066-.194.071-.968.071-4.18v-4.103l.179-.566c.117-.37.413-1.344.656-2.163s.538-1.801.654-2.18c1.057-3.447 2.067-6.838 2.094-7.032l.022-.158zm15.691 4.976-.001.214h-.033l-.019 5.906-.018 5.726-.458.467c-.513.522-.925.722-1.297.629-.405-.102-.395.056-.429-6.712l-.031-6.23h-2.947v.214h-.034v6.759c0 7.242 0 7.237.367 7.965.293.579.719.861 1.45.958.962.128 2-.308 2.962-1.244l.418-.407v.701c0 .606.017.706.127.737.18.05 2.412.053 2.653.004l.2-.041v-.207l.034-.007V10.23l-2.944.039zm-7.476 3.053c-.279-1.198-.802-2.004-1.664-2.561-1.353-.875-2.897-.967-4.331-.259-1.045.516-1.717 1.372-2.065 2.628-.041.15-.072.275-.095.463-.088.443-.099 1.105-.122 4.186-.035 4.748.019 5.313.614 6.391.583 1.058 1.794 1.833 3.112 1.993.397.048 1.201-.027 1.663-.155 1.051-.291 2.058-1.122 2.504-2.065.192-.407.309-.691.379-1.208.13-.707.14-1.849.14-4.762 0-3.715-.012-4.121-.136-4.651zM15.604 23c-.247.188-.679.27-1.031.195-.271-.058-.636-.482-.748-.869-.14-.482-.151-7.187-.03-8.502.199-.658.756-1.002 1.364-.838.474.128.716.424.854 1.046.103.461.115 1.035.093 4.414-.014 2.241-.022 3.336-.096 3.924-.074.371-.197.47-.407.63zm56.283-6.308h1.424l-.023-1.29c-.022-1.183-.039-1.319-.198-1.64-.249-.507-.617-.731-1.201-.731-.701 0-1.146.339-1.356 1.036-.089.296-.183 2.334-.116 2.51.038.098.241.116 1.469.116zm-9.518-2.935c-.19-.383-.543-.571-.954-.556-.319.011-.674.146-1.015.407l-.254.193v9.269l.254.193c.576.439 1.209.532 1.644.241.172-.115.285-.274.372-.527.114-.329.124-.75.109-4.649-.015-4.064-.024-4.303-.157-4.57z"/><path d="M80.027 9.582c-.284-3.401-.509-4.505-1.211-5.923-.929-1.878-2.272-2.868-4.184-3.086-1.478-.168-7.041-.405-12.189-.52-8.912-.198-23.564.183-25.436.662-.865.221-1.513.597-2.188 1.269-1.183 1.177-1.887 2.865-2.17 5.2-.647 5.331-.66 11.773-.037 17.297.268 2.376.82 3.92 1.857 5.192.647.794 1.761 1.469 2.758 1.67.7.141 4.201.337 9.3.521.76.027 2.771.074 4.47.105 3.541.063 10.051.026 13.772-.079 2.504-.07 7.069-.255 7.922-.321.24-.019.796-.054 1.236-.079 1.477-.083 2.417-.393 3.3-1.086 1.142-.897 2.027-2.556 2.4-4.501.354-1.84.59-5.118.638-8.839.04-3.109-.013-4.787-.238-7.482zM44.54 8.35l-1.656.02-.073 17.661-1.435.018c-1.11.015-1.447-.001-1.474-.073-.019-.051-.042-4.032-.052-8.849l-.018-8.758-3.234-.041v-2.76l9.557.039.041 2.721-1.656.02zm10.154 10.122v7.595h-2.616v-.799c0-.601-.023-.799-.093-.799-.051 0-.288.198-.527.441-.517.526-1.13.949-1.653 1.145-1.083.405-2.112.169-2.551-.586-.401-.691-.409-.845-.409-8.01v-6.58h2.614l.02 6.196c.019 6.088.022 6.2.168 6.448.193.329.488.417.956.288.276-.076.464-.21.911-.654l.563-.561V10.879h2.616v7.595zm10.205 6.51c-.23.513-.744 1.016-1.165 1.14-1.099.324-1.98.06-2.998-.897-.316-.297-.61-.538-.654-.538-.053 0-.082.233-.082.69v.69h-2.616V5.572H60v3.343c0 1.839.025 3.343.054 3.343s.306-.244.613-.541c.707-.683 1.298-.981 2.049-1.038 1.338-.101 2.135.587 2.501 2.16.114.491.125 1.051.125 5.596 0 5.537-.001 5.56-.443 6.546zm11.069-3.039c-.023.57-.092 1.223-.154 1.454-.364 1.349-1.332 2.304-2.732 2.696-1.885.527-3.96-.337-4.788-1.994-.465-.93-.481-1.116-.481-5.662 0-3.707.013-4.162.132-4.667.336-1.431 1.168-2.357 2.578-2.871a3.917 3.917 0 0 1 1.261-.234c1.521-.031 3.031.787 3.663 2.119.427.899.48 1.283.522 3.816l.039 2.271-5.578.039-.02 1.526c-.029 2.153.116 2.815.697 3.207.489.329 1.24.305 1.649-.055.383-.337.491-.698.529-1.753l.034-.927h2.694l-.043 1.036z"/></symbol><symbol id="icon-arrow-up" viewBox="0 0 32 32"><path d="M16 1 1 16h9v16h12V16h9z"/></symbol><symbol id="icon-github" viewBox="0 0 32 32"><path d="M16 .395c-8.836 0-16 7.163-16 16 0 7.069 4.585 13.067 10.942 15.182.8.148 1.094-.347 1.094-.77 0-.381-.015-1.642-.022-2.979-4.452.968-5.391-1.888-5.391-1.888-.728-1.849-1.776-2.341-1.776-2.341-1.452-.993.11-.973.11-.973 1.606.113 2.452 1.649 2.452 1.649 1.427 2.446 3.743 1.739 4.656 1.33.143-1.034.558-1.74 1.016-2.14-3.554-.404-7.29-1.777-7.29-7.907 0-1.747.625-3.174 1.649-4.295-.166-.403-.714-2.03.155-4.234 0 0 1.344-.43 4.401 1.64a15.353 15.353 0 0 1 4.005-.539c1.359.006 2.729.184 4.008.539 3.054-2.07 4.395-1.64 4.395-1.64.871 2.204.323 3.831.157 4.234 1.026 1.12 1.647 2.548 1.647 4.295 0 6.145-3.743 7.498-7.306 7.895.574.497 1.085 1.47 1.085 2.963 0 2.141-.019 3.864-.019 4.391 0 .426.288.925 1.099.768C27.421 29.457 32 23.462 32 16.395c0-8.837-7.164-16-16-16z"/></symbol></defs><symbol id="vader"><path d="M15 2v1c-3.652 0-6.871 2.66-7.582 6.137-.04.164-.066.34-.09.52a.97.97 0 0 0-.062.312c-.04.445-.157 1.078-.301 1.719-.047.199-.094.398-.14.585l-.005.008v.004c-.004.02-.008.027-.008.027v.016l-.007.02c-.164.648-.34 1.254-.47 1.699-.241.601-.503 1.23-.765 1.863-.55 1.328-1.41 2.813-2.148 4.2-.738 1.378-1.418 2.585-1.422 3.878-.004.348.117 1.14.906 1.946.574.582 1.383.972 2.485 1.41 1.035.414 2.32.773 3.664 1.023.195.23.293.559.535.7.5.288 1.074.46 1.723.59 1.292.265 2.914.343 4.687.343 1.773 0 3.39-.074 4.688-.332.652-.133 1.222-.3 1.726-.594.246-.14.34-.472.535-.71 1.344-.247 2.625-.606 3.66-1.02 1.102-.438 1.91-.828 2.485-1.41.789-.805.91-1.598.906-1.946-.004-1.293-.684-2.5-1.422-3.879-.738-1.386-1.598-2.875-2.148-4.199-.266-.637-.528-1.27-.77-1.867 0-.012-.004-.02-.004-.027a.22.22 0 0 1-.015-.047l-.004-.016c0-.004-.004-.008-.004-.012a12.58 12.58 0 0 1-.067-.234l-.003-.004a.427.427 0 0 0-.02-.074v-.008c-.023-.078-.047-.16-.074-.246v-.008l-.004-.008s-.008-.023-.012-.046l-.004-.016c-.031-.102-.058-.207-.09-.313v-.011c-.004-.016-.011-.032-.011-.036l-.004-.015v-.016c-.028-.09-.051-.18-.074-.27l-.004-.003v-.004c-.008-.035-.016-.063-.016-.07l-.004-.016-.004-.012c-.027-.097-.05-.203-.082-.312 0-.004.004-.004 0-.004l-.008-.04-.007-.023c-.024-.101-.047-.207-.075-.32l-.004-.008a.515.515 0 0 0-.015-.07l-.004-.02v-.015c-.152-.649-.274-1.293-.313-1.75V9.96a.914.914 0 0 0-.058-.297.338.338 0 0 0-.008-.039c-.023-.168-.043-.336-.082-.484C23.875 5.664 20.656 3 17 3V2Zm0 3v6.89c-.54-.277-1.883-.89-3.543-.89-.758 0-1.605.145-2.406.465.086-.434.16-.856.195-1.25v-.008l.004-.016c0-.02.008-.039.008-.062a.245.245 0 0 1-.008.062c0-.004.004.004.016-.035l.02-.078.007-.086a2.71 2.71 0 0 1 .066-.387l.016-.054C9.875 7.062 12.34 5 15 5Zm2 0c2.66 0 5.125 2.059 5.629 4.547l.008.031.004.024c.027.097.05.23.066.39l.012.082.02.082c.019.063.019.078.015.063 0-.012-.008-.051-.012-.094h.004v.004c0 .027.008.062.008.09.039.398.113.824.2 1.261a6.889 6.889 0 0 0-2.497-.48c-1.64 0-2.918.602-3.457.887Zm-5.543 8c1.324 0 3.063.875 3.063.875l.226.125h2.52l.23-.133S19.136 13 20.457 13c1.254 0 2.828.559 3.34 1.766.25.625.52 1.273.785 1.914.629 1.508 1.516 3.03 2.23 4.367C27.527 22.387 28 23.617 28 24v.02c-.004-.16.07.101-.332.511-.082.086-.828.57-1.797.957a17.8 17.8 0 0 1-3.512.977l-.117.02L22 26h-2v1.75c-1.031.172-2.438.25-4 .25-1.586 0-3.008-.082-4.043-.266v-1.691h-2l-.215.441-.101-.02a17.758 17.758 0 0 1-3.508-.976c-.973-.386-1.715-.875-1.801-.957-.402-.41-.328-.672-.332-.511V24c0-.383.473-1.613 1.188-2.953.714-1.336 1.601-2.86 2.23-4.367v-.004c.266-.64.535-1.285.785-1.91.524-1.23 2-1.766 3.254-1.766ZM12 14c-2.25 0-3 1.734-3 3 0 .93.328 2.035.633 3.102.305 1.066.61 1.976.61 1.976l1.898-.633s-.293-.875-.582-1.894a27.105 27.105 0 0 1-.387-1.547c.465.008.851-.004.851-.004H15v-2.25S13.71 14 12 14Zm3 4v2l-3 4h8l-3-4v-2Zm2 0h2.977s.386.012.851.004a27.104 27.104 0 0 1-.387 1.547c-.289 1.02-.582 1.894-.582 1.894l1.899.633s.305-.91.61-1.976C22.671 19.035 23 17.93 23 17c0-1.266-.719-3-3-3-1.71 0-3 1.75-3 1.75Z"/></symbol><symbol id="stormtroopers"><path d="M12.31 3c-4.17 0-7.64 3.064-8.215 7.04a1.505 1.505 0 0 0-.094.503v6.449c-.647.66-1.064 1.518-1.064 2.47 0 .986.384 1.89 1.029 2.532v.002L5.12 23.23c-.222.622-.179 1.337.219 1.923l.7 1.032.001.002c.675 1.065 1.436 1.817 2.338 2.26.903.442 1.875.554 2.926.554h.933c1.122 0 2.11-.542 2.762-1.346V28h2v-.225A3.673 3.673 0 0 0 19.762 29h.931c1.051 0 2.025-.112 2.928-.555.903-.442 1.662-1.195 2.338-2.261l.703-1.036c.399-.587.441-1.301.217-1.923l1.156-1.227.002-.002a3.56 3.56 0 0 0 1.033-2.533c0-.955-.42-1.814-1.07-2.473v-6.447c0-.175-.036-.342-.092-.5C27.335 6.066 23.862 3 19.69 3h-7.38zm0 2h7.38c2.712 0 4.999 1.662 5.898 4H6.412c.9-2.338 3.186-4 5.899-4zm-6.3 6h19.98c.002.067.01.132.01.2v6.114a1 1 0 0 0 .479.854c.34.207.591.647.591 1.295 0 .463-.182.857-.441 1.113a1 1 0 0 0-.024.024l-.681.72-6.947-5.295c-.8-.609-1.794-1.02-2.875-1.025h-.045c-1.081.005-2.076.416-2.875 1.025l-7.043 5.368-.74-.79a1 1 0 0 0-.024-.025 1.571 1.571 0 0 1-.44-1.115c0-.65.253-1.091.588-1.297A1 1 0 0 0 6 17.314V11.2c0-.068.008-.133.01-.2zm1.558 2 .936 2.81a1.15 1.15 0 0 0 1.783.557L14.767 13H7.569zm9.6 0 4.478 3.367c.63.474 1.54.19 1.788-.558L24.367 13h-7.199zm-1.102 4h.026c.574.003 1.167.23 1.672.615l2.222 1.696-1.908-.885a4.943 4.943 0 0 0-4.156 0l-1.506.697 1.979-1.508c.504-.385 1.098-.612 1.671-.615zM16 19.969c.43 0 .853.093 1.238.271l7.694 3.563c.127.059.138.127.074.222l-.719 1.063a1 1 0 0 0-.017.025c-.548.865-1.018 1.287-1.53 1.537-.512.251-1.139.35-2.047.35h-.931c-.294 0-.541-.094-.762-.213V24h-2v-1h-2v1h-2v2.826a1.714 1.714 0 0 1-.762.174h-.933c-.908 0-1.535-.099-2.047-.35-.512-.25-.982-.672-1.53-1.537a1 1 0 0 0-.015-.025l-.717-1.059c-.067-.099-.054-.168.076-.228a1 1 0 0 0 .002 0l7.688-3.56A2.947 2.947 0 0 1 16 19.968zM11 24a1 1 0 0 0 0 2 1 1 0 0 0 0-2zm10 0a1 1 0 0 0 0 2 1 1 0 0 0 0-2z"/></symbol><symbol id="popkorn" viewBox="0 0 14 14"><path d="M3.286 13a.267.267 0 0 1-.173-.132 113.44 113.44 0 0 1-.546-1.949c-.522-1.89-.527-1.91-.527-1.985 0-.142.045-.296.122-.421a.971.971 0 0 1 .865-.461c.127 0 .186 0 .242.015.108.02.243.06.32.093a.65.65 0 0 0 .075.028c.01 0 .037-.013.071-.028.092-.042.212-.078.323-.097.084-.014.121-.016.24-.013.205.01.354.044.527.132l.083.043.073-.04c.08-.042.23-.094.34-.118.108-.023.386-.021.494 0 .122.028.21.059.308.108l.09.045.09-.046c.175-.088.317-.123.527-.129.117 0 .156 0 .24.013.128.022.257.064.364.119l.084.043.1-.05c.343-.171.76-.171 1.104 0l.1.05.084-.043c.106-.054.236-.096.365-.119.084-.014.122-.016.24-.013.19.01.327.037.485.112l.066.03.074-.03a1.43 1.43 0 0 1 .527-.112.947.947 0 0 1 .529.113.889.889 0 0 1 .258.197.827.827 0 0 1 .24.568v.094l-.527 1.904a198.82 198.82 0 0 1-.542 1.937.277.277 0 0 1-.126.118l-.046.022h-3.57c-1.963 0-3.581 0-3.595-.01zm1.016-.53a4322.068 4322.068 0 0 1-.551-3.077L3.643 8.8 3.6 8.76c-.114-.107-.309-.177-.524-.19-.246-.016-.455.11-.505.305l-.013.049.049.176.39 1.42a6909.064 6909.064 0 0 0 .54 1.957h.382c.33 0 .382 0 .382-.012zm2.031-.027-.037-1.088a618.24 618.24 0 0 1-.06-1.712l-.023-.663-.026-.052a.704.704 0 0 0-.442-.338.883.883 0 0 0-.366 0c-.179.047-.347.172-.414.306l-.02.037.196 1.772.196 1.775h.996v-.04zm2.092-.1c.01-.075.092-.874.188-1.774l.173-1.637-.023-.045a.573.573 0 0 0-.098-.12.49.49 0 0 0-.16-.117.981.981 0 0 0-.153-.06c-.294-.074-.625.046-.777.282-.053.08-.056.099-.065.38-.049 1.41-.108 3.077-.112 3.145v.084h1.017l.014-.138zm1.829-.08.294-1.069c.654-2.372.624-2.259.619-2.297-.02-.14-.173-.282-.347-.319a.941.941 0 0 0-.648.147c-.082.06-.082.058-.11.22l-.633 3.518v.019h.77l.06-.214zm1.302-4.492a1.56 1.56 0 0 0-.91-.246c-.18.01-.377.04-.524.086l-.048.015L10 7.602a1.78 1.78 0 0 0-1.077.01l-.098.032-.096-.032a1.803 1.803 0 0 0-1.11 0l-.099.031-.098-.032a1.79 1.79 0 0 0-1.138.01l-.07.024-.072-.025a1.656 1.656 0 0 0-.576-.094c-.214 0-.383.026-.575.091l-.085.028-.056-.02a1.846 1.846 0 0 0-.735-.096 1.987 1.987 0 0 0-.379.074l-.073.023-.068-.02a2.802 2.802 0 0 0-.163-.04 1.691 1.691 0 0 0-1.03.083.26.26 0 0 1-.077.025 1.554 1.554 0 0 1-.283-.93c0-.323.084-.578.277-.837.073-.1.222-.25.329-.334l.076-.06-.055-.037a1.468 1.468 0 0 1-.6-.875 1.912 1.912 0 0 1-.015-.537c.05-.401.208-.732.479-.993.277-.267.62-.423 1.077-.49.138-.02.456-.021.587 0 .335.05.603.17.83.367.047.042.076.062.08.056 0-.01.016-.053.033-.105.133-.42.365-.797.666-1.085.474-.452 1.081-.706 1.9-.796.156-.017.668-.024.835-.012.768.057 1.391.277 1.9.672.118.09.32.292.412.406.308.39.486.823.561 1.37.016.118.018.166.018.465 0 .25 0 .372-.015.493a4.394 4.394 0 0 1-.132.786l-.027.095.071.046c.098.064.26.229.332.336.188.282.281.607.298 1.044.014.363-.052.669-.2.92a1.164 1.164 0 0 1-.125.178s-.036-.021-.074-.046zM7.35 6.994a.783.783 0 0 0 .687-.696c.018-.152-.024-.25-.133-.311l-.044-.024H6.395l-.044.024c-.11.06-.152.16-.133.315a.789.789 0 0 0 .678.692c.085.01.367.01.453 0zM5.121 5.95a.661.661 0 0 0 .551-.485.86.86 0 0 0 0-.331.656.656 0 0 0-.397-.44.658.658 0 0 0-.78.253.72.72 0 0 0-.108.355c0 .272.183.528.439.616a.607.607 0 0 0 .299.032zM5.1 5.425a.266.266 0 0 1-.176-.335.277.277 0 0 1 .163-.163.26.26 0 0 1 .325.338.264.264 0 0 1-.244.167c-.026 0-.056 0-.068-.01zm4.2.525a.656.656 0 0 0 .552-.497.878.878 0 0 0 0-.32.66.66 0 0 0-.43-.45.434.434 0 0 0-.2-.028c-.118 0-.128 0-.201.026a.651.651 0 0 0-.008 1.239c.11.035.188.043.292.03zm-.022-.525a.266.266 0 0 1-.189-.248c0-.082.019-.127.078-.186a.202.202 0 0 1 .1-.065c.1-.03.205 0 .27.07.049.056.066.1.066.177 0 .05 0 .075-.017.104a.256.256 0 0 1-.228.152h-.08z"/></symbol></svg>