<svg width="648.8px" height="120.8px" xmlns="http://www.w3.org/2000/svg" viewBox="-74.39999999999998 14.600000000000001 648.8 120.8" style="background: none;" preserveAspectRatio="xMidYMid"><defs><filter id="editing-hover" x="-100%" y="-100%" width="300%" height="300%"><feFlood flood-color="#070403" result="flood"></feFlood><feComposite operator="in" in2="SourceAlpha" in="flood" result="shadow"></feComposite><feOffset dx="-4" dy="-4" in="SourceGraphic" result="offset-1"></feOffset><feOffset dx="4" dy="4" in="shadow" result="offset-2"></feOffset><feMerge><feMergeNode in="offset-2"></feMergeNode><feMergeNode in="offset-1"></feMergeNode></feMerge></filter></defs><g filter="url(#editing-hover)"><g transform="translate(20.849976629018784, 104.78999710083008)"><path d="M14.34 0L0.38 0L8.51-42.24L22.59-42.24L14.34 0ZM25.02-6.40L25.02-6.40L25.02-6.40Q25.02-8.13 25.92-12.48L25.92-12.48L29.31-29.76L25.54-29.76L25.79-31.68L25.79-31.68Q33.47-33.98 40.90-39.62L40.90-39.62L43.97-39.62L42.43-32.64L47.42-32.64L46.85-29.76L41.92-29.76L38.66-12.48L38.66-12.48Q37.82-8.51 37.82-7.17L37.82-7.17L37.82-7.17Q37.82-4.10 40.51-3.46L40.51-3.46L40.51-3.46Q39.87-1.28 37.57 0L37.57 0L37.57 0Q35.26 1.28 32 1.28L32 1.28L32 1.28Q28.74 1.28 26.88-0.77L26.88-0.77L26.88-0.77Q25.02-2.82 25.02-6.40ZM57.02-29.50L50.24-29.50L50.24-29.50Q52.61-37.70 52.74-46.34L52.74-46.34L54.59-46.59L54.59-46.59Q55.55-46.72 56.26-46.72L56.26-46.72L56.26-46.72Q59.07-46.72 60.61-45.34L60.61-45.34L60.61-45.34Q62.14-43.97 62.14-41.54L62.14-41.54L62.14-41.54Q62.14-38.98 60.99-36.16L60.99-36.16L60.99-36.16Q58.94-31.17 57.02-29.50L57.02-29.50ZM80.51-22.46L80.51-22.46L80.51-22.46Q81.41-24.83 81.41-26.88L81.41-26.88L81.41-26.88Q81.41-30.66 78.34-30.66L78.34-30.66L78.34-30.66Q76.74-30.66 75.42-29.22L75.42-29.22L75.42-29.22Q74.11-27.78 74.11-25.98L74.11-25.98L74.11-25.98Q74.11-24.70 75.14-23.68L75.14-23.68L75.14-23.68Q76.61-22.27 80.38-19.97L80.38-19.97L80.38-19.97Q84.16-17.66 85.60-15.78L85.60-15.78L85.60-15.78Q87.04-13.89 87.04-11.30L87.04-11.30L87.04-11.30Q87.04-8.70 85.79-6.34L85.79-6.34L85.79-6.34Q84.54-3.97 82.30-2.30L82.30-2.30L82.30-2.30Q77.50 1.28 69.82 1.28L69.82 1.28L69.82 1.28Q65.66 1.28 62.46-0.90L62.46-0.90L62.46-0.90Q59.26-3.01 59.26-5.50L59.26-5.50L59.26-5.50Q59.26-8 61.09-9.47L61.09-9.47L61.09-9.47Q62.91-10.94 65.60-10.94L65.60-10.94L65.60-10.94Q68.29-10.94 69.95-9.92L69.95-9.92L69.95-9.92Q69.12-7.81 69.12-6.40L69.12-6.40L69.12-6.40Q69.12-2.18 72.70-2.18L72.70-2.18L72.70-2.18Q74.24-2.18 75.26-3.14L75.26-3.14L75.26-3.14Q76.29-4.10 76.29-5.76L76.29-5.76L76.29-5.76Q76.29-9.02 70.78-12.48L70.78-12.48L70.78-12.48Q66.30-15.42 65.28-16.58L65.28-16.58L65.28-16.58Q63.55-18.62 63.55-21.18L63.55-21.18L63.55-21.18Q63.55-23.74 64.77-26.18L64.77-26.18L64.77-26.18Q65.98-28.61 68.22-30.34L68.22-30.34L68.22-30.34Q72.90-33.92 81.02-33.92L81.02-33.92L81.02-33.92Q85.18-33.92 87.65-32.26L87.65-32.26L87.65-32.26Q90.11-30.59 90.11-27.78L90.11-27.78L90.11-27.78Q90.11-24.96 88.42-23.36L88.42-23.36L88.42-23.36Q86.72-21.76 83.65-21.76L83.65-21.76L83.65-21.76Q81.54-21.76 80.51-22.46ZM131.58-10.82L131.58-10.82L131.58-10.82Q133.18-9.73 133.18-7.33L133.18-7.33L133.18-7.33Q133.18-4.93 131.97-3.39L131.97-3.39L131.97-3.39Q130.75-1.86 128.77-0.83L128.77-0.83L128.77-0.83Q124.67 1.28 120.26 1.28L120.26 1.28L120.26 1.28Q115.84 1.28 113.25 0.32L113.25 0.32L113.25 0.32Q110.66-0.64 108.93-2.43L108.93-2.43L108.93-2.43Q105.54-5.82 105.54-12.03L105.54-12.03L105.54-12.03Q105.54-21.70 110.78-27.58L110.78-27.58L110.78-27.58Q116.42-33.92 126.21-33.92L126.21-33.92L126.21-33.92Q132.29-33.92 135.30-31.36L135.30-31.36L135.30-31.36Q137.54-29.44 137.54-26.30L137.54-26.30L137.54-26.30Q137.54-15.04 118.08-15.04L118.08-15.04L118.08-15.04Q117.82-13.38 117.82-11.97L117.82-11.97L117.82-11.97Q117.82-9.02 119.14-7.90L119.14-7.90L119.14-7.90Q120.45-6.78 122.88-6.78L122.88-6.78L122.88-6.78Q125.31-6.78 127.90-7.90L127.90-7.90L127.90-7.90Q130.50-9.02 131.58-10.82ZM118.53-17.79L118.53-17.79L118.53-17.79Q123.07-17.79 125.70-20.61L125.70-20.61L125.70-20.61Q128.32-23.30 128.32-27.58L128.32-27.58L128.32-27.58Q128.32-29.06 127.78-29.86L127.78-29.86L127.78-29.86Q127.23-30.66 126.14-30.66L126.14-30.66L126.14-30.66Q125.06-30.66 124.13-30.24L124.13-30.24L124.13-30.24Q123.20-29.82 122.24-28.42L122.24-28.42L122.24-28.42Q119.87-25.22 118.53-17.79ZM185.79 1.28L185.79 1.28L185.79 1.28Q178.05 1.28 178.05-4.74L178.05-4.74L178.05-4.74Q178.05-7.36 179.17-12.45L179.17-12.45L179.17-12.45Q180.29-17.54 180.67-19.58L180.67-19.58L180.67-19.58Q181.57-24.26 181.57-25.73L181.57-25.73L181.57-25.73Q181.57-28.99 179.14-28.99L179.14-28.99L179.14-28.99Q177.54-28.99 176-26.78L176-26.78L176-26.78Q174.46-24.58 173.76-20.16L173.76-20.16L169.79 0L157.31 1.28L160.77-16.13L160.77-16.13Q161.34-19.01 161.86-22.27L161.86-22.27L161.86-22.27Q162.37-25.54 162.37-26.05L162.37-26.05L162.37-26.05Q162.37-28.99 160.19-28.99L160.19-28.99L160.19-28.99Q158.72-28.99 157.12-26.82L157.12-26.82L157.12-26.82Q155.52-24.64 154.62-20.16L154.62-20.16L150.72 0L138.11 1.28L144.83-32.64L155.26-33.92L154.18-27.46L154.18-27.46Q155.84-30.91 158.91-32.42L158.91-32.42L158.91-32.42Q161.98-33.92 166.78-33.92L166.78-33.92L166.78-33.92Q169.54-33.92 171.33-32.58L171.33-32.58L171.33-32.58Q173.12-31.23 173.70-29.06L173.70-29.06L173.70-29.06Q174.78-31.30 177.57-32.61L177.57-32.61L177.57-32.61Q180.35-33.92 183.78-33.92L183.78-33.92L183.78-33.92Q187.20-33.92 188.90-33.18L188.90-33.18L188.90-33.18Q190.59-32.45 191.62-31.23L191.62-31.23L191.62-31.23Q193.34-28.99 193.34-24.90L193.34-24.90L193.34-24.90Q193.34-20.86 191.62-12.48L191.62-12.48L191.62-12.48Q190.72-8.38 190.72-6.88L190.72-6.88L190.72-6.88Q190.72-5.38 191.58-4.48L191.58-4.48L191.58-4.48Q192.45-3.58 193.73-3.46L193.73-3.46L193.73-3.46Q193.09-1.28 190.88 0L190.88 0L190.88 0Q188.67 1.28 185.79 1.28ZM228.48-4.38L228.48-4.38L228.48-4.38Q225.79-1.66 222.11-0.19L222.11-0.19L222.11-0.19Q218.43 1.28 214.78 1.28L214.78 1.28L214.78 1.28Q211.14 1.28 209.86 0.64L209.86 0.64L207.87 11.52L194.88 12.80L203.71-32.64L214.14-33.73L213.31-29.31L213.31-29.31Q216-33.86 221.57-33.86L221.57-33.86L221.57-33.86Q227.84-33.86 231.17-29.82L231.17-29.82L231.17-29.82Q234.11-26.18 234.11-20.61L234.11-20.61L234.11-20.61Q234.11-15.04 232.64-11.07L232.64-11.07L232.64-11.07Q231.17-7.10 228.48-4.38ZM214.02-22.34L210.62-3.58L210.62-3.58Q211.97-2.43 213.63-2.43L213.63-2.43L213.63-2.43Q215.30-2.43 216.26-3.07L216.26-3.07L216.26-3.07Q217.22-3.71 217.92-4.99L217.92-4.99L217.92-4.99Q219.84-8.45 221.38-18.94L221.38-18.94L221.38-18.94Q221.82-22.02 221.82-25.02L221.82-25.02L221.82-25.02Q221.82-28.03 221.15-28.99L221.15-28.99L221.15-28.99Q220.48-29.95 219.20-29.95L219.20-29.95L219.20-29.95Q215.30-29.95 214.02-22.34L214.02-22.34ZM238.98-6.40L238.98-6.40L238.98-6.40Q238.98-8.13 239.87-12.48L239.87-12.48L243.26-29.76L239.49-29.76L239.74-31.68L239.74-31.68Q247.42-33.98 254.85-39.62L254.85-39.62L257.92-39.62L256.38-32.64L261.38-32.64L260.80-29.76L255.87-29.76L252.61-12.48L252.61-12.48Q251.78-8.51 251.78-7.17L251.78-7.17L251.78-7.17Q251.78-4.10 254.46-3.46L254.46-3.46L254.46-3.46Q253.82-1.28 251.52 0L251.52 0L251.52 0Q249.22 1.28 245.95 1.28L245.95 1.28L245.95 1.28Q242.69 1.28 240.83-0.77L240.83-0.77L240.83-0.77Q238.98-2.82 238.98-6.40ZM281.41-7.23L281.41-7.23L281.41-7.23Q278.08-3.78 272.00-3.78L272.00-3.78L272.00-3.78Q264.38-3.78 262.78-9.34L262.78-9.34L262.78-9.34Q262.27-11.01 262.27-12.86L262.27-12.86L262.27-12.86Q262.27-14.72 262.66-16.64L262.66-16.64L265.66-32.64L278.66-33.92L275.14-15.30L275.14-15.30Q275.01-14.46 274.82-13.57L274.82-13.57L274.82-13.57Q274.62-12.67 274.62-11.74L274.62-11.74L274.62-11.74Q274.62-10.82 274.94-10.21L274.94-10.21L274.94-10.21Q275.26-9.60 275.71-9.22L275.71-9.22L275.71-9.22Q276.48-8.70 277.86-8.70L277.86-8.70L277.86-8.70Q279.23-8.70 280.42-10.37L280.42-10.37L280.42-10.37Q281.60-12.03 282.18-14.91L282.18-14.91L285.70-32.64L298.30-33.92L293.50-8.77L293.50-8.77Q291.14 3.52 286.27 8.38L286.27 8.38L286.27 8.38Q283.78 10.88 280.54 11.87L280.54 11.87L280.54 11.87Q277.31 12.86 273.15 12.86L273.15 12.86L273.15 12.86Q266.43 12.86 262.59 10.75L262.59 10.75L262.59 10.75Q258.75 8.64 258.75 5.12L258.75 5.12L258.75 5.12Q258.75 2.50 260.74 0.99L260.74 0.99L260.74 0.99Q262.72-0.51 265.79-0.51L265.79-0.51L265.79-0.51Q268.48-0.51 270.53 0.64L270.53 0.64L270.53 0.64Q271.74 1.34 272.32 2.24L272.32 2.24L272.32 2.24Q270.85 3.52 270.85 5.63L270.85 5.63L270.85 5.63Q270.85 8.45 273.41 8.45L273.41 8.45L273.41 8.45Q277.63 8.45 280.06-1.28L280.06-1.28L280.06-1.28Q280.77-4.16 281.41-7.23ZM340.86 1.28L340.86 1.28L340.86 1.28Q333.12 1.28 333.12-4.74L333.12-4.74L333.12-4.74Q333.18-6.40 333.70-9.22L333.70-9.22L334.85-15.10L334.85-15.10Q336.58-23.42 336.58-25.28L336.58-25.28L336.58-25.28Q336.58-28.99 334.40-28.99L334.40-28.99L334.40-28.99Q330.75-28.99 328.83-19.46L328.83-19.46L325.06 0L312.19 1.28L318.85-32.70L329.34-33.92L328.32-27.65L328.32-27.65Q331.33-33.92 340.54-33.92L340.54-33.92L340.54-33.92Q345.02-33.92 346.91-32.03L346.91-32.03L346.91-32.03Q348.80-30.14 348.80-25.92L348.80-25.92L348.80-25.92Q348.80-21.95 346.75-12.67L346.75-12.67L346.75-12.67Q345.79-8.51 345.79-6.94L345.79-6.94L345.79-6.94Q345.79-5.38 346.66-4.48L346.66-4.48L346.66-4.48Q347.52-3.58 348.80-3.46L348.80-3.46L348.80-3.46Q348.16-1.28 345.95 0L345.95 0L345.95 0Q343.74 1.28 340.86 1.28ZM367.87 1.28L367.87 1.28L367.87 1.28Q353.79 1.28 353.79-11.97L353.79-11.97L353.79-11.97Q353.79-21.38 358.98-27.46L358.98-27.46L358.98-27.46Q364.48-33.92 374.02-33.92L374.02-33.92L374.02-33.92Q380.93-33.92 384.45-30.72L384.45-30.72L384.45-30.72Q387.97-27.52 387.97-20.80L387.97-20.80L387.97-20.80Q387.97-10.56 382.46-4.61L382.46-4.61L382.46-4.61Q377.09 1.28 367.87 1.28ZM369.54-26.56L369.54-26.56L369.54-26.56Q368.77-24.83 368.16-22.24L368.16-22.24L368.16-22.24Q367.55-19.65 366.78-15.55L366.78-15.55L366.78-15.55Q366.02-11.46 366.02-6.40L366.02-6.40L366.02-6.40Q366.02-4.74 366.56-3.65L366.56-3.65L366.56-3.65Q367.10-2.56 368.58-2.56L368.58-2.56L368.58-2.56Q370.05-2.56 370.98-3.26L370.98-3.26L370.98-3.26Q371.90-3.97 372.61-5.63L372.61-5.63L372.61-5.63Q373.89-8.58 374.91-14.05L374.91-14.05L374.91-14.05Q375.94-19.52 376.03-21.89L376.03-21.89L376.03-21.89Q376.13-24.26 376.13-26.02L376.13-26.02L376.13-26.02Q376.13-27.78 375.62-28.93L375.62-28.93L375.62-28.93Q375.10-30.08 373.66-30.08L373.66-30.08L373.66-30.08Q372.22-30.08 371.26-29.18L371.26-29.18L371.26-29.18Q370.30-28.29 369.54-26.56ZM439.49-10.69L439.49-10.69Q435.26-4.86 431.20-1.79L431.20-1.79L431.20-1.79Q427.14 1.28 422.94 1.28L422.94 1.28L422.94 1.28Q418.75 1.28 417.28 0.45L417.28 0.45L417.28-13.63L417.28-13.63Q413.63-3.90 407.10-0.13L407.10-0.13L407.10-0.13Q404.74 1.28 402.50 1.28L402.50 1.28L402.50 1.28Q398.21 1.28 396.35 0.45L396.35 0.45L396.35 0.45Q395.90-14.21 395.52-18.27L395.52-18.27L395.52-18.27Q395.14-22.34 394.82-24.83L394.82-24.83L394.82-24.83Q394.18-29.82 392-31.87L392-31.87L392-31.87Q394.75-33.92 398.59-33.92L398.59-33.92L398.59-33.92Q406.02-33.92 407.04-24.70L407.04-24.70L407.04-24.70Q407.30-22.53 407.30-20.22L407.30-20.22L407.30-20.22Q407.30-16.77 406.53-4.74L406.53-4.74L406.53-4.74Q408.06-5.44 409.70-7.97L409.70-7.97L409.70-7.97Q411.33-10.50 412.67-13.95L412.67-13.95L412.67-13.95Q415.68-21.95 415.68-28.86L415.68-28.86L415.68-28.86Q415.68-29.95 415.39-31.10L415.39-31.10L415.39-31.10Q415.10-32.26 414.78-32.58L414.78-32.58L414.78-32.58Q417.02-33.92 420.45-33.92L420.45-33.92L420.45-33.92Q423.87-33.92 425.50-31.58L425.50-31.58L425.50-31.58Q427.14-29.25 427.58-24.96L427.58-24.96L427.58-24.96Q428.10-19.52 428.10-16.26L428.10-16.26L428.10-16.26Q428.10-11.71 427.65-4.99L427.65-4.99L427.65-4.99Q430.85-7.30 433.47-14.85L433.47-14.85L433.47-14.85Q436.10-22.40 436.10-27.78L436.10-27.78L436.10-27.78Q436.10-30.14 435.71-31.55L435.71-31.55L435.71-31.55Q437.82-33.92 441.47-33.92L441.47-33.92L441.47-33.92Q443.71-33.92 445.34-32.70L445.34-32.70L445.34-32.70Q446.98-31.49 446.98-29.22L446.98-29.22L446.98-29.22Q446.98-26.94 446.30-24.51L446.30-24.51L446.30-24.51Q445.63-22.08 444.54-19.58L444.54-19.58L444.54-19.58Q442.43-14.59 439.49-10.69L439.49-10.69ZM445.50-3.78L445.50-3.78L445.50-3.78Q445.50-6.21 447.39-7.55L447.39-7.55L447.39-7.55Q449.28-8.90 451.97-8.90L451.97-8.90L451.97-8.90Q454.66-8.90 456.29-7.55L456.29-7.55L456.29-7.55Q457.92-6.21 457.92-3.78L457.92-3.78L457.92-3.78Q457.92-1.34 456.10-0.03L456.10-0.03L456.10-0.03Q454.27 1.28 451.58 1.28L451.58 1.28L451.58 1.28Q448.90 1.28 447.20-0.03L447.20-0.03L447.20-0.03Q445.50-1.34 445.50-3.78Z" fill="#f3e0cd"></path></g></g><style>text {
  font-size: 64px;
  font-family: Arial Black;
  dominant-baseline: central;
  text-anchor: middle;
}</style></svg>