<svg width="22" height="62" viewBox="0 0 22 62" fill="none" xmlns="http://www.w3.org/2000/svg">
<path fill-rule="evenodd" clip-rule="evenodd" d="M0 3.18V18.82C0 20.5596 0 21.4404 0 23.18V38.82C0 40.5596 0 41.4404 0 43.18V58.82C0 60.5763 1.42373 62 3.18 62H18.82C20.5763 62 22 60.5763 22 58.82V43.18C22 41.4404 22 40.5596 22 38.82V23.18C22 21.4404 22 20.5596 22 18.82V3.18C22 1.42373 20.5763 0 18.82 0H3.18C1.42373 0 0 1.42373 0 3.18ZM2 3.18C2 2.5283 2.5283 2 3.18 2H5V5H2V3.18ZM2 7H5V10H2V7ZM18.82 40C19.4717 40 20 39.4717 20 38.82V37H17V40H18.82ZM15 40V32H7V40H15ZM5 40V37H2V38.82C2 39.4717 2.5283 40 3.18 40H5ZM3.18 42C2.5283 42 2 42.5283 2 43.18V45H5V42H3.18ZM7 42V50H15V42H7ZM17 42V45H20V43.18C20 42.5283 19.4717 42 18.82 42H17ZM5 20H3.18C2.5283 20 2 19.4717 2 18.82V17H5V20ZM15 20H7V12H15V20ZM18.82 20H17V17H20V18.82C20 19.4717 19.4717 20 18.82 20ZM17 22H18.82C19.4717 22 20 22.5283 20 23.18V25H17V22ZM7 22H15V30H7V22ZM3.18 22H5V25H2V23.18C2 22.5283 2.5283 22 3.18 22ZM20 5V3.18C20 2.5283 19.4717 2 18.82 2H17V5H20ZM17 7H20V10H17V7ZM15 2H7V10H15V2ZM20 12V15H17V12H20ZM5 15H2V12H5V15ZM2 27H5V30H2V27ZM17 27H20V30H17V27ZM20 32V35H17V32H20ZM5 35H2V32H5V35ZM5 47H2V50H5V47ZM20 47H17V50H20V47ZM20 55V52H17V55H20ZM17 57H20V58.82C20 59.4717 19.4717 60 18.82 60H17V57ZM15 52H7V60H15V52ZM2 58.82V57H5V60H3.18C2.5283 60 2 59.4717 2 58.82ZM2 55H5V52H2V55Z" fill="white"/>
</svg>
