<svg aria-hidden="true" style="position: absolute; width: 0; height: 0; overflow: hidden;" version="1.1" xmlns="http://www.w3.org/2000/svg" xmlns:xlink="http://www.w3.org/1999/xlink">
<defs>
<symbol id="icon-film" viewBox="0 0 24 24">
<path d="M19.82 2H4.18A2.18 2.18 0 0 0 2 4.18v15.64A2.18 2.18 0 0 0 4.18 22h15.64A2.18 2.18 0 0 0 22 19.82V4.18A2.18 2.18 0 0 0 19.82 2ZM7 2v20M17 2v20M2 12h20M2 7h5M2 17h5M17 17h5M17 7h5" stroke="#fff" stroke-width="2" stroke-linecap="round" stroke-linejoin="round"/>
</symbol>
<symbol id="icon-search" viewBox="0 0 24 24">
<path d="M16.041 15.856c-0.034 0.026-0.067 0.055-0.099 0.087s-0.060 0.064-0.087 0.099c-1.258 1.213-2.969 1.958-4.855 1.958-1.933 0-3.682-0.782-4.95-2.050s-2.050-3.017-2.050-4.95 0.782-3.682 2.050-4.95 3.017-2.050 4.95-2.050 3.682 0.782 4.95 2.050 2.050 3.017 2.050 4.95c0 1.886-0.745 3.597-1.959 4.856zM21.707 20.293l-3.675-3.675c1.231-1.54 1.968-3.493 1.968-5.618 0-2.485-1.008-4.736-2.636-6.364s-3.879-2.636-6.364-2.636-4.736 1.008-6.364 2.636-2.636 3.879-2.636 6.364 1.008 4.736 2.636 6.364 3.879 2.636 6.364 2.636c2.125 0 4.078-0.737 5.618-1.968l3.675 3.675c0.391 0.391 1.024 0.391 1.414 0s0.391-1.024 0-1.414z"></path>
</symbol>
<symbol id="icon-close" viewBox="0 0 24 24">
<path d="M5.293 6.707l5.293 5.293-5.293 5.293c-0.391 0.391-0.391 1.024 0 1.414s1.024 0.391 1.414 0l5.293-5.293 5.293 5.293c0.391 0.391 1.024 0.391 1.414 0s0.391-1.024 0-1.414l-5.293-5.293 5.293-5.293c0.391-0.391 0.391-1.024 0-1.414s-1.024-0.391-1.414 0l-5.293 5.293-5.293-5.293c-0.391-0.391-1.024-0.391-1.414 0s-0.391 1.024 0 1.414z"></path>
</symbol>
><symbol id="icon-youtube" viewBox="0 0 32 32"><path d="M31.681 9.6s-.313-2.206-1.275-3.175C29.187 5.15 27.825 5.144 27.2 5.069c-4.475-.325-11.194-.325-11.194-.325h-.012s-6.719 0-11.194.325c-.625.075-1.987.081-3.206 1.356C.631 7.394.325 9.6.325 9.6s-.319 2.588-.319 5.181v2.425c0 2.587.319 5.181.319 5.181s.313 2.206 1.269 3.175c1.219 1.275 2.819 1.231 3.531 1.369 2.563.244 10.881.319 10.881.319s6.725-.012 11.2-.331c.625-.075 1.988-.081 3.206-1.356.962-.969 1.275-3.175 1.275-3.175s.319-2.587.319-5.181v-2.425c-.006-2.588-.325-5.181-.325-5.181zM12.694 20.15v-8.994l8.644 4.513-8.644 4.481z"/>
</symbol>
<symbol id="icon-youtube2" viewBox="0 0 80 32"><path d="M10.75 5.294a.449.449 0 0 0 .012-.056l.033-.236-1.48-.008c-1.337-.008-1.746 0-1.783.034-.018.016-.479 1.77-1.302 4.946-.392 1.515-.723 2.725-.734 2.689s-.481-1.766-1.044-3.843c-.563-2.078-1.034-3.789-1.048-3.803-.019-.019-1.812-.028-3.263-.016-.21.002-.327-.41 1.876 6.598.305.97.762 2.344 1.015 3.052.292.817.5 1.448.642 1.974.251 1.002.26 1.63.205 2.363-.063.847-.073 6.826-.011 6.926.047.077 2.851.112 3.116.04.042-.012.071-.053.09-.279.066-.194.071-.968.071-4.18v-4.103l.179-.566c.117-.37.413-1.344.656-2.163s.538-1.801.654-2.18c1.057-3.447 2.067-6.838 2.094-7.032l.022-.158zM26.441 10.27l-.001.214h-.033l-.019 5.906-.018 5.726-.458.467c-.513.522-.925.722-1.297.629-.405-.102-.395.056-.429-6.712l-.031-6.23h-2.947v.214h-.034v6.759c0 7.242 0 7.237.367 7.965.293.579.719.861 1.45.958.962.128 2-.308 2.962-1.244l.418-.407v.701c0 .606.017.706.127.737.18.05 2.412.053 2.653.004l.2-.041v-.207l.034-.007V10.23l-2.944.039zM18.965 13.323c-.279-1.198-.802-2.004-1.664-2.561-1.353-.875-2.897-.967-4.331-.259-1.045.516-1.717 1.372-2.065 2.628-.041.15-.072.275-.095.463-.088.443-.099 1.105-.122 4.186-.035 4.748.019 5.313.614 6.391.583 1.058 1.794 1.833 3.112 1.993.397.048 1.201-.027 1.663-.155 1.051-.291 2.058-1.122 2.504-2.065.192-.407.309-.691.379-1.208.13-.707.14-1.849.14-4.762 0-3.715-.012-4.121-.136-4.651zM15.604 23c-.247.188-.679.27-1.031.195-.271-.058-.636-.482-.748-.869-.14-.482-.151-7.187-.03-8.502.199-.658.756-1.002 1.364-.838.474.128.716.424.854 1.046.103.461.115 1.035.093 4.414-.014 2.241-.022 3.336-.096 3.924-.074.371-.197.47-.407.63zM71.887 16.692h1.424l-.023-1.29c-.022-1.183-.039-1.319-.198-1.64-.249-.507-.617-.731-1.201-.731-.701 0-1.146.339-1.356 1.036-.089.296-.183 2.334-.116 2.51.038.098.241.116 1.469.116zM62.369 13.757c-.19-.383-.543-.571-.954-.556-.319.011-.674.146-1.015.407l-.254.193v9.269l.254.193c.576.439 1.209.532 1.644.241.172-.115.285-.274.372-.527.114-.329.124-.75.109-4.649-.015-4.064-.024-4.303-.157-4.57z"/><path d="M80.027 9.582c-.284-3.401-.509-4.505-1.211-5.923-.929-1.878-2.272-2.868-4.184-3.086-1.478-.168-7.041-.405-12.189-.52-8.912-.198-23.564.183-25.436.662-.865.221-1.513.597-2.188 1.269-1.183 1.177-1.887 2.865-2.17 5.2-.647 5.331-.66 11.773-.037 17.297.268 2.376.82 3.92 1.857 5.192.647.794 1.761 1.469 2.758 1.67.7.141 4.201.337 9.3.521.76.027 2.771.074 4.47.105 3.541.063 10.051.026 13.772-.079 2.504-.07 7.069-.255 7.922-.321.24-.019.796-.054 1.236-.079 1.477-.083 2.417-.393 3.3-1.086 1.142-.897 2.027-2.556 2.4-4.501.354-1.84.59-5.118.638-8.839.04-3.109-.013-4.787-.238-7.482zM44.54 8.35l-1.656.02-.073 17.661-1.435.018c-1.11.015-1.447-.001-1.474-.073-.019-.051-.042-4.032-.052-8.849l-.018-8.758-3.234-.041v-2.76l9.557.039.041 2.721-1.656.02zm10.154 10.122v7.595h-2.616v-.799c0-.601-.023-.799-.093-.799-.051 0-.288.198-.527.441-.517.526-1.13.949-1.653 1.145-1.083.405-2.112.169-2.551-.586-.401-.691-.409-.845-.409-8.01v-6.58h2.614l.02 6.196c.019 6.088.022 6.2.168 6.448.193.329.488.417.956.288.276-.076.464-.21.911-.654l.563-.561V10.879h2.616v7.595zm10.205 6.51c-.23.513-.744 1.016-1.165 1.14-1.099.324-1.98.06-2.998-.897-.316-.297-.61-.538-.654-.538-.053 0-.082.233-.082.69v.69h-2.616V5.572H60v3.343c0 1.839.025 3.343.054 3.343s.306-.244.613-.541c.707-.683 1.298-.981 2.049-1.038 1.338-.101 2.135.587 2.501 2.16.114.491.125 1.051.125 5.596 0 5.537-.001 5.56-.443 6.546zm11.069-3.039c-.023.57-.092 1.223-.154 1.454-.364 1.349-1.332 2.304-2.732 2.696-1.885.527-3.96-.337-4.788-1.994-.465-.93-.481-1.116-.481-5.662 0-3.707.013-4.162.132-4.667.336-1.431 1.168-2.357 2.578-2.871a3.917 3.917 0 0 1 1.261-.234c1.521-.031 3.031.787 3.663 2.119.427.899.48 1.283.522 3.816l.039 2.271-5.578.039-.02 1.526c-.029 2.153.116 2.815.697 3.207.489.329 1.24.305 1.649-.055.383-.337.491-.698.529-1.753l.034-.927h2.694l-.043 1.036z"/>
</symbol>
<symbol id="icon-github" viewBox="0 0 32 32"><path d="M16 .395c-8.836 0-16 7.163-16 16 0 7.069 4.585 13.067 10.942 15.182.8.148 1.094-.347 1.094-.77 0-.381-.015-1.642-.022-2.979-4.452.968-5.391-1.888-5.391-1.888-.728-1.849-1.776-2.341-1.776-2.341-1.452-.993.11-.973.11-.973 1.606.113 2.452 1.649 2.452 1.649 1.427 2.446 3.743 1.739 4.656 1.33.143-1.034.558-1.74 1.016-2.14-3.554-.404-7.29-1.777-7.29-7.907 0-1.747.625-3.174 1.649-4.295-.166-.403-.714-2.03.155-4.234 0 0 1.344-.43 4.401 1.64a15.353 15.353 0 0 1 4.005-.539c1.359.006 2.729.184 4.008.539 3.054-2.07 4.395-1.64 4.395-1.64.871 2.204.323 3.831.157 4.234 1.026 1.12 1.647 2.548 1.647 4.295 0 6.145-3.743 7.498-7.306 7.895.574.497 1.085 1.47 1.085 2.963 0 2.141-.019 3.864-.019 4.391 0 .426.288.925 1.099.768C27.421 29.457 32 23.462 32 16.395c0-8.837-7.164-16-16-16z"/></symbol>
</defs>
</svg> 
